<svg xmlns="http://www.w3.org/2000/svg" width="37" height="28" viewBox="0 0 37 28">
  <g id="Page-1" transform="translate(-5 -9)">
    <g id="Artboard-Copy" transform="translate(-407 -9)">
      <path id="quote2" d="M448.621,37.165a5.621,5.621,0,0,0-1.3-2.13,6.381,6.381,0,0,0-2.512-1.568A12.063,12.063,0,0,0,440.8,32.9h-2.231A12.13,12.13,0,0,1,441.5,25.89a21.948,21.948,0,0,1,7.025-5.075L446.709,18a27.358,27.358,0,0,0-10.117,7.379q-4.2,4.87-4.2,9.655,0,5.142,2.44,8.058a8.637,8.637,0,0,0,7,2.908,7.256,7.256,0,0,0,5.025-1.928,5.9,5.9,0,0,0,2.135-4.5,7.7,7.7,0,0,0-.379-2.408m-20.4,0a5.64,5.64,0,0,0-1.3-2.13,6.359,6.359,0,0,0-2.512-1.568A12.044,12.044,0,0,0,420.4,32.9h-2.232A12.141,12.141,0,0,1,421.1,25.89a21.986,21.986,0,0,1,7.026-5.075L426.312,18A27.358,27.358,0,0,0,416.2,25.38q-4.2,4.87-4.2,9.655c0,3.428.807,6.117,2.439,8.058a8.631,8.631,0,0,0,7,2.908,7.26,7.26,0,0,0,5.026-1.928,5.9,5.9,0,0,0,2.134-4.5,7.788,7.788,0,0,0-.378-2.408" fill="#0c7924" fill-rule="evenodd"/>
    </g>
  </g>
</svg>
