<svg xmlns="http://www.w3.org/2000/svg" width="76.619" height="75.892" viewBox="0 0 76.619 75.892">
  <g id="nft-chain" transform="translate(-6 -4.172)">
    <path id="Path_105" data-name="Path 105" d="M34.146,31H30v8.293" transform="translate(9.17 9.71)" fill="none" stroke="#181e4b" stroke-linecap="round" stroke-linejoin="round" stroke-width="2"/>
    <line id="Line_3" data-name="Line 3" x1="4.146" transform="translate(39.17 44.857)" fill="none" stroke="#181e4b" stroke-linecap="round" stroke-linejoin="round" stroke-width="2"/>
    <path id="Path_106" data-name="Path 106" d="M28.528,36.528,23,31v8.293" transform="translate(6.495 9.71)" fill="none" stroke="#181e4b" stroke-linecap="round" stroke-linejoin="round" stroke-width="2"/>
    <line id="Line_4" data-name="Line 4" y2="8.293" transform="translate(35.024 40.71)" fill="none" stroke="#181e4b" stroke-linecap="round" stroke-linejoin="round" stroke-width="2"/>
    <line id="Line_5" data-name="Line 5" x2="5.528" transform="translate(47.463 40.71)" fill="none" stroke="#181e4b" stroke-linecap="round" stroke-linejoin="round" stroke-width="2"/>
    <line id="Line_6" data-name="Line 6" y1="8.293" transform="translate(50.227 40.71)" fill="none" stroke="#181e4b" stroke-linecap="round" stroke-linejoin="round" stroke-width="2"/>
    <line id="Line_7" data-name="Line 7" x2="3.909" y2="3.909" transform="translate(77.296 5.586)" fill="none" stroke="#181e4b" stroke-linecap="round" stroke-linejoin="round" stroke-width="2"/>
    <line id="Line_8" data-name="Line 8" x1="3.909" y2="3.909" transform="translate(77.296 5.586)" fill="none" stroke="#181e4b" stroke-linecap="round" stroke-linejoin="round" stroke-width="2"/>
    <circle id="Ellipse_5" data-name="Ellipse 5" cx="1.382" cy="1.382" r="1.382" transform="translate(6 44.857)" fill="#181e4b"/>
    <path id="Path_107" data-name="Path 107" d="M21.439,8.75,9,15.66v15.2l12.439,6.91,12.439-6.91V15.66Z" transform="translate(1.146 1.209)" fill="none" stroke="#181e4b" stroke-linecap="round" stroke-linejoin="round" stroke-width="2"/>
    <line id="Line_9" data-name="Line 9" y2="20.899" transform="translate(22.585 23.957)" fill="none" stroke="#181e4b" stroke-linecap="round" stroke-linejoin="round" stroke-width="2"/>
    <path id="Path_108" data-name="Path 108" d="M33.878,13.75,21.439,20.66,9,13.75" transform="translate(1.146 3.119)" fill="none" stroke="#181e4b" stroke-linecap="round" stroke-linejoin="round" stroke-width="2"/>
    <line id="Line_10" data-name="Line 10" x2="23.495" transform="translate(29.495 25.507)" fill="none" stroke="#181e4b" stroke-linecap="round" stroke-linejoin="round" stroke-width="2"/>
    <line id="Line_11" data-name="Line 11" x2="23.495" transform="translate(29.495 66.97)" fill="none" stroke="#181e4b" stroke-linecap="round" stroke-linejoin="round" stroke-width="2"/>
    <path id="Path_109" data-name="Path 109" d="M48.439,8.75,36,15.66v15.2l12.439,6.91,12.439-6.91V15.66Z" transform="translate(11.463 1.209)" fill="none" stroke="#181e4b" stroke-linecap="round" stroke-linejoin="round" stroke-width="2"/>
    <line id="Line_12" data-name="Line 12" y2="20.899" transform="translate(59.901 23.957)" fill="none" stroke="#181e4b" stroke-linecap="round" stroke-linejoin="round" stroke-width="2"/>
    <path id="Path_110" data-name="Path 110" d="M60.878,13.75,48.439,20.66,36,13.75" transform="translate(11.463 3.119)" fill="none" stroke="#181e4b" stroke-linecap="round" stroke-linejoin="round" stroke-width="2"/>
    <path id="Path_111" data-name="Path 111" d="M48.439,37.75,36,44.66v15.2l12.439,6.91,12.439-6.91V44.66Z" transform="translate(11.463 12.289)" fill="none" stroke="#181e4b" stroke-linecap="round" stroke-linejoin="round" stroke-width="2"/>
    <line id="Line_13" data-name="Line 13" y2="13.989" transform="translate(59.901 64.038)" fill="none" stroke="#181e4b" stroke-linecap="round" stroke-linejoin="round" stroke-width="2"/>
    <path id="Path_112" data-name="Path 112" d="M60.878,42.75,48.439,49.66,36,42.75" transform="translate(11.463 14.2)" fill="none" stroke="#181e4b" stroke-linecap="round" stroke-linejoin="round" stroke-width="2"/>
    <path id="Path_113" data-name="Path 113" d="M21.439,37.75,9,44.66v15.2l12.439,6.91,12.439-6.91V44.66Z" transform="translate(1.146 12.289)" fill="none" stroke="#181e4b" stroke-linecap="round" stroke-linejoin="round" stroke-width="2"/>
    <line id="Line_14" data-name="Line 14" y2="13.989" transform="translate(22.585 64.038)" fill="none" stroke="#181e4b" stroke-linecap="round" stroke-linejoin="round" stroke-width="2"/>
    <path id="Path_114" data-name="Path 114" d="M33.878,42.75,21.439,49.66,9,42.75" transform="translate(1.146 14.2)" fill="none" stroke="#181e4b" stroke-linecap="round" stroke-linejoin="round" stroke-width="2"/>
  </g>
</svg>
