<svg xmlns="http://www.w3.org/2000/svg" width="58.012" height="57.978" viewBox="0 0 58.012 57.978">
  <g id="_019---Star" data-name="019---Star" transform="translate(-0.993 0)">
    <path id="Shape" d="M31.757,1.144l7.444,15.8a1.968,1.968,0,0,0,1.475,1.123L57.32,20.605a2.08,2.08,0,0,1,1.086,3.5l-12.044,12.3a2.115,2.115,0,0,0-.563,1.817L48.642,55.6A1.98,1.98,0,0,1,45.8,57.76l-14.887-8.2a1.88,1.88,0,0,0-1.823,0L14.2,57.76A1.98,1.98,0,0,1,11.358,55.6L14.2,38.226a2.115,2.115,0,0,0-.563-1.817L1.594,24.107a2.08,2.08,0,0,1,1.086-3.5l16.645-2.534A1.968,1.968,0,0,0,20.8,16.948l7.444-15.8a1.921,1.921,0,0,1,3.514,0Z" fill="#f6ab27" fill-rule="evenodd"/>
    <path id="Shape-2" data-name="Shape" d="M37.39,13.11a60.614,60.614,0,0,0-13.18,9.52A57.319,57.319,0,0,0,13.63,36.4L1.59,24.11a2.079,2.079,0,0,1,1.09-3.5l16.64-2.54a2,2,0,0,0,1.48-1.12L28.24,1.14a1.929,1.929,0,0,1,3.52,0Z" fill="#f4cd1e" fill-rule="evenodd"/>
  </g>
</svg>
